Coordinates
version=1
nRows=19
nColumns=63
inDegrees=yes

Units are S.I. units (second, meters, Newtons, ...)
If the header above contains a line with 'inDegrees', this indicates whether rotational values are in degrees (yes) or radians (no).

endheader
time	pelvis_tilt	pelvis_list	pelvis_rotation	pelvis_tx	pelvis_ty	pelvis_tz	hip_flexion_r	hip_adduction_r	hip_rotation_r	knee_angle_r	knee_angle_r_beta	ankle_angle_r	subtalar_angle_r	mtp_angle_r	hip_flexion_l	hip_adduction_l	hip_rotation_l	knee_angle_l	knee_angle_l_beta	ankle_angle_l	subtalar_angle_l	mtp_angle_l	L5_S1_Flex_Ext	L5_S1_Lat_Bending	L5_S1_axial_rotation	L4_L5_Flex_Ext	L4_L5_Lat_Bending	L4_L5_axial_rotation	L3_L4_Flex_Ext	L3_L4_Lat_Bending	L3_L4_axial_rotation	L2_L3_Flex_Ext	L2_L3_Lat_Bending	L2_L3_axial_rotation	L1_L2_Flex_Ext	L1_L2_Lat_Bending	L1_L2_axial_rotation	L1_T12_Flex_Ext	L1_T12_Lat_Bending	L1_T12_axial_rotation	Abs_r3	Abs_r2	Abs_r1	Abs_t1	Abs_t2	neck_flexion	neck_bending	neck_rotation	arm_flex_r	arm_add_r	arm_rot_r	elbow_flex_r	pro_sup_r	wrist_flex_r	wrist_dev_r	arm_flex_l	arm_add_l	arm_rot_l	elbow_flex_l	pro_sup_l	wrist_flex_l	wrist_dev_l
0.000000	-2.079183	-6.459829	93.103476	0.163808	0.961717	0.538753	1.645162	-4.033539	-10.480445	7.175651	0.125239	18.157593	13.155308	0.000000	3.547157	1.391510	-8.005908	9.112343	0.159040	20.986937	4.173888	0.000000	0.000493	-0.070575	-0.059371	0.000915	-0.093864	-0.063081	0.000810	-0.171595	-0.063081	0.000563	-0.171595	-0.051949	0.000458	-0.143916	-0.048239	0.000282	-0.109320	-0.044528	0.003520	-0.798354	-0.330201	0.000000	0.000000	25.958145	-3.662325	4.473283	32.609574	-11.479817	82.169009	50.887813	88.429547	21.917314	16.563336	24.992964	-12.145416	60.545798	55.192842	85.993516	4.090383	13.748453
0.018519	-2.205791	-6.316709	92.456771	0.164733	0.961183	0.537376	1.508751	-4.192545	-9.407795	7.424565	0.129583	18.021985	12.890426	0.000000	2.932753	1.595386	-8.434718	8.481542	0.148031	21.501660	4.575803	0.000000	0.001592	-0.082974	0.039231	0.002956	-0.110355	0.041683	0.002615	-0.201742	0.041683	0.001819	-0.201742	0.034327	0.001478	-0.169200	0.031875	0.000909	-0.128526	0.029423	0.011369	-0.938616	0.218190	0.000000	0.000000	24.918961	-3.009011	4.418806	32.070340	-10.875890	82.762892	49.704294	88.367689	20.620969	16.209503	24.780394	-12.181578	61.236723	54.769194	85.664175	3.071414	13.065972
0.037037	-2.309926	-6.183101	91.867334	0.165570	0.960743	0.536143	1.370135	-4.319513	-8.429578	7.595317	0.132563	17.923437	12.632042	0.000000	2.417723	1.754365	-8.944278	7.991823	0.139484	21.936301	5.005784	0.000000	0.001876	-0.092971	0.130763	0.003485	-0.123651	0.138936	0.003083	-0.226050	0.138936	0.002144	-0.226050	0.114418	0.001742	-0.189587	0.106245	0.001072	-0.144012	0.098072	0.013403	-1.051707	0.727265	0.000000	0.000000	24.093490	-2.475775	4.382469	31.604575	-10.355868	83.353222	48.660242	88.320307	19.401377	15.933759	24.552188	-12.175992	61.712022	54.391075	85.237225	2.390873	12.646251
0.055556	-2.393423	-6.058861	91.333187	0.166325	0.960392	0.535048	1.231465	-4.417481	-7.546836	7.698160	0.134358	17.859266	12.385657	0.000000	1.994756	1.872238	-9.520537	7.630996	0.133186	22.298207	5.456866	0.000000	0.001452	-0.100794	0.215161	0.002697	-0.134056	0.228608	0.002386	-0.245071	0.228608	0.001660	-0.245071	0.188266	0.001349	-0.205540	0.174818	0.000830	-0.156130	0.161371	0.010374	-1.140205	1.196660	0.000000	0.000000	23.462058	-2.052845	4.362382	31.207125	-9.913539	83.939019	47.747494	88.286526	18.251155	15.727026	24.309429	-12.133180	61.991115	54.054655	84.718594	2.009005	12.460158
0.074074	-2.458116	-5.943841	90.852351	0.167004	0.960121	0.534083	1.094892	-4.489487	-6.760612	7.743347	0.135147	17.826792	12.156770	0.000000	1.656545	1.952798	-10.149444	7.386873	0.128925	22.594723	5.922083	0.000000	0.000425	-0.106672	0.292358	0.000790	-0.141873	0.310631	0.000699	-0.259361	0.310631	0.000486	-0.259361	0.255814	0.000395	-0.217525	0.237541	0.000243	-0.165234	0.219269	0.003037	-1.206690	1.626010	0.000000	0.000000	23.004993	-1.730451	4.356655	30.872835	-9.542688	84.519303	46.957890	88.265475	17.162915	15.580229	24.053198	-12.057664	62.093425	53.756106	84.114210	1.886060	12.478560
0.092593	-2.505842	-5.837896	90.422851	0.167611	0.959925	0.533243	0.962566	-4.538570	-6.071948	7.741130	0.135108	17.823331	11.950881	0.000000	1.395779	1.999837	-10.816947	7.247263	0.126489	22.833192	6.394471	0.000000	-0.001099	-0.110831	0.362290	-0.002042	-0.147405	0.384933	-0.001806	-0.269474	0.384933	-0.001257	-0.269474	0.317004	-0.001021	-0.226006	0.294361	-0.000628	-0.171677	0.271718	-0.007853	-1.253739	2.014950	0.000000	0.000000	22.702622	-1.498820	4.363396	30.596551	-9.237101	85.093093	46.283266	88.256281	16.129273	15.484293	23.784580	-11.953963	62.038372	53.491599	83.430003	1.982283	12.672325
0.111111	-2.538435	-5.740880	90.042708	0.168154	0.959797	0.532520	0.836637	-4.567766	-5.481886	7.701763	0.134421	17.846202	11.773488	0.000000	1.205151	2.017145	-11.508995	7.199977	0.125663	23.020961	6.867064	0.000000	-0.003016	-0.113500	0.424891	-0.005601	-0.150955	0.451447	-0.004955	-0.275963	0.451447	-0.003447	-0.275963	0.371779	-0.002801	-0.231448	0.345224	-0.001723	-0.175811	0.318668	-0.021543	-1.283931	2.363115	0.000000	0.000000	22.535274	-1.348182	4.380716	30.373120	-8.990564	85.659409	45.715460	88.258072	15.142842	15.430142	23.504655	-11.826600	61.845378	53.257306	82.671901	2.257922	13.012319
0.129630	-2.557729	-5.652646	89.709945	0.168636	0.959731	0.531908	0.719256	-4.580115	-4.991469	7.635498	0.133265	17.892724	11.630093	0.000000	1.077350	2.008516	-12.211537	7.232826	0.126237	23.165374	7.332896	0.000000	-0.005219	-0.114906	0.480095	-0.009692	-0.152826	0.510100	-0.008574	-0.279384	0.510100	-0.005965	-0.279384	0.420083	-0.004846	-0.234317	0.390077	-0.002982	-0.177990	0.360071	-0.037279	-1.299845	2.670142	0.000000	0.000000	22.483275	-1.268765	4.406724	30.197385	-8.796863	86.217271	45.246311	88.269974	14.196238	15.408699	23.214507	-11.680095	61.533864	53.049397	81.845833	2.673224	13.469411
0.148148	-2.565560	-5.573048	89.422584	0.169064	0.959720	0.531400	0.612575	-4.578654	-4.601739	7.552589	0.131818	17.960214	11.526194	0.000000	1.005069	1.977740	-12.910521	7.333619	0.127996	23.273775	7.785003	0.000000	-0.007603	-0.115279	0.527836	-0.014119	-0.153321	0.560826	-0.012491	-0.280289	0.560826	-0.008689	-0.280289	0.461856	-0.007060	-0.235077	0.428867	-0.004344	-0.178567	0.395877	-0.054306	-1.304059	2.935664	0.000000	0.000000	22.526954	-1.250797	4.439531	30.064195	-8.649784	86.765698	44.867656	88.291115	13.282075	15.410890	22.915219	-11.518971	61.123251	52.864044	80.957726	3.188436	14.014469
0.166667	-2.563764	-5.501941	89.178648	0.169444	0.959757	0.530990	0.518742	-4.566420	-4.313738	7.463287	0.130259	18.045992	11.467291	0.000000	0.980998	1.928610	-13.591897	7.490167	0.130728	23.353511	8.216419	0.000000	-0.010062	-0.114845	0.568049	-0.018686	-0.152744	0.603552	-0.016531	-0.279235	0.603552	-0.011500	-0.279235	0.497043	-0.009343	-0.234192	0.461540	-0.005749	-0.177895	0.426037	-0.071871	-1.299152	3.159318	0.000000	0.000000	22.646638	-1.284507	4.477244	29.968393	-8.543113	87.303709	44.571333	88.320622	12.392967	15.427638	22.607873	-11.347748	60.632961	52.697418	80.013511	3.763806	14.618359
0.185185	-2.554174	-5.439178	88.976159	0.169780	0.959836	0.530671	0.439910	-4.546453	-4.128509	7.377846	0.128768	18.147374	11.458883	0.000000	0.997829	1.864918	-14.241614	7.690281	0.134221	23.411925	8.620178	0.000000	-0.012491	-0.113833	0.600668	-0.023196	-0.151398	0.638210	-0.020521	-0.276774	0.638210	-0.014276	-0.276774	0.525585	-0.011599	-0.232129	0.488043	-0.007137	-0.176328	0.450501	-0.089219	-1.287703	3.340737	0.000000	0.000000	22.822654	-1.360123	4.517975	29.904826	-8.470636	87.830325	44.349180	88.357624	11.521529	15.449868	22.293551	-11.170947	60.082415	52.545691	79.019115	4.359579	15.251950
0.203704	-2.540909	-5.384776	88.822022	0.170070	0.959965	0.530486	0.392646	-4.534207	-4.179773	7.343594	0.128170	18.254629	11.633215	0.000000	1.057581	1.787926	-14.893952	7.929784	0.138401	23.485581	9.071927	0.000000	-0.016324	-0.112094	0.620588	-0.030315	-0.149085	0.659375	-0.026818	-0.272546	0.659375	-0.018656	-0.272546	0.543015	-0.015158	-0.228583	0.504228	-0.009327	-0.173634	0.465441	-0.116599	-1.268033	3.451524	0.000000	0.000000	22.968790	-1.377316	4.626065	29.935963	-8.380582	88.548717	44.119024	88.434769	10.423918	15.370395	22.003895	-11.002727	59.585331	52.362784	77.850329	4.806576	15.714802
0.222222	-2.528936	-5.341460	88.699770	0.170350	0.960116	0.530364	0.371081	-4.529349	-4.369918	7.356935	0.128403	18.353668	11.906862	0.000000	1.136658	1.710190	-15.463533	8.174372	0.142670	23.555757	9.460794	0.000000	-0.018405	-0.111369	0.633852	-0.034181	-0.148120	0.673468	-0.030238	-0.270782	0.673468	-0.021036	-0.270782	0.554620	-0.017091	-0.227103	0.515005	-0.010517	-0.172510	0.475389	-0.131468	-1.259823	3.525294	0.000000	0.000000	23.136085	-1.468638	4.695390	30.000755	-8.314048	89.315856	43.982108	88.506499	9.319411	15.233383	21.681286	-10.844156	59.062327	52.194744	76.575324	5.131190	16.157675
0.240741	-2.514561	-5.305717	88.614164	0.170601	0.960282	0.530285	0.370683	-4.526868	-4.662167	7.415872	0.129431	18.460360	12.243555	0.000000	1.224958	1.634068	-15.900473	8.413485	0.146843	23.622599	9.737081	0.000000	-0.018986	-0.111042	0.639911	-0.035260	-0.147686	0.679905	-0.031193	-0.269987	0.679905	-0.021700	-0.269987	0.559922	-0.017631	-0.226437	0.519928	-0.010849	-0.172004	0.479933	-0.135618	-1.256128	3.558993	0.000000	0.000000	23.298480	-1.610131	4.730211	30.057193	-8.281266	90.008514	43.933960	88.560257	8.299870	15.088986	21.331171	-10.690647	58.511993	52.036905	75.259757	5.352970	16.577277
0.259259	-2.502755	-5.282857	88.534693	0.170856	0.960435	0.530230	0.402072	-4.529043	-4.976685	7.517223	0.131200	18.591208	12.595382	0.000000	1.314775	1.565156	-16.239769	8.627268	0.150574	23.691924	9.927305	0.000000	-0.017632	-0.111579	0.644591	-0.032744	-0.148401	0.684878	-0.028968	-0.271294	0.684878	-0.020152	-0.271294	0.564017	-0.016373	-0.227533	0.523730	-0.010075	-0.172837	0.483443	-0.125944	-1.262209	3.585023	0.000000	0.000000	23.464600	-1.773722	4.731390	30.045113	-8.290710	90.449391	43.980646	88.594518	7.456297	15.051528	20.942099	-10.541409	57.877605	51.916874	74.138035	5.477339	17.014079
0.277778	-2.476744	-5.253645	88.533241	0.171042	0.960616	0.530234	0.426727	-4.513638	-5.335058	7.637012	0.133291	18.735395	12.916108	0.000000	1.399359	1.488985	-16.373798	8.828115	0.154080	23.764837	9.972000	0.000000	-0.017617	-0.111257	0.634389	-0.032717	-0.147972	0.674039	-0.028943	-0.270511	0.674039	-0.020135	-0.270511	0.555091	-0.016359	-0.226876	0.515441	-0.010067	-0.172338	0.475792	-0.125839	-1.258567	3.528283	0.000000	0.000000	23.612383	-1.977504	4.681005	29.995986	-8.322317	90.742435	44.044212	88.626178	6.680983	14.914923	20.596975	-10.413912	57.343812	51.779027	72.882557	5.525987	17.343185
0.296296	-2.444816	-5.233105	88.564661	0.171186	0.960777	0.530278	0.470714	-4.489649	-5.669965	7.779015	0.135769	18.919982	13.196812	0.000000	1.477656	1.428722	-16.228256	8.984102	0.156802	23.823940	9.722968	0.000000	-0.017032	-0.110241	0.616594	-0.031629	-0.146620	0.655131	-0.027981	-0.268039	0.655131	-0.019465	-0.268039	0.539519	-0.015816	-0.224803	0.500982	-0.009732	-0.170763	0.462445	-0.121655	-1.247063	3.429308	0.000000	0.000000	23.756488	-2.189964	4.614495	29.883376	-8.372764	90.780372	44.132846	88.661087	6.107698	14.879929	20.278170	-10.310045	56.872553	51.678118	71.803661	5.379230	17.624467
0.314815	-2.415419	-5.217705	88.599646	0.171363	0.960930	0.530351	0.529665	-4.453432	-5.821954	7.927698	0.138364	19.113075	13.269895	0.000000	1.549136	1.369535	-16.115958	9.116571	0.159114	23.918262	9.557321	0.000000	-0.016502	-0.109654	0.596261	-0.030646	-0.145840	0.633528	-0.027111	-0.266614	0.633528	-0.018860	-0.266614	0.521729	-0.015324	-0.223607	0.484462	-0.009429	-0.169855	0.447196	-0.117872	-1.240433	3.316227	0.000000	0.000000	23.856081	-2.323289	4.611488	29.723005	-8.432128	90.624477	44.237731	88.707546	5.602347	14.916183	19.987597	-10.235140	56.438261	51.598329	70.989695	5.135397	17.800471
0.333333	-2.381401	-5.206971	88.638063	0.171553	0.961067	0.530447	0.600121	-4.403373	-5.854063	8.079302	0.141010	19.318003	13.234345	0.000000	1.611639	1.304288	-16.018416	9.227005	0.161042	24.042767	9.445939	0.000000	-0.016146	-0.108516	0.574492	-0.029984	-0.144327	0.610398	-0.026526	-0.263847	0.610398	-0.018453	-0.263847	0.502681	-0.014993	-0.221287	0.466775	-0.009226	-0.168092	0.430869	-0.115327	-1.227560	3.195153	0.000000	0.000000	23.896578	-2.385277	4.639830	29.526637	-8.484147	90.287079	44.319449	88.770768	5.271562	15.051045	19.723652	-10.169195	56.004454	51.518827	70.650934	4.883734	17.847397
